<svg xmlns="http://www.w3.org/2000/svg" viewBox="0 0 252.51 42.06"><defs><style>.cls-1{opacity:0.3;}.cls-2{fill:#8596b8;}.cls-3{fill:#a06faf;}.cls-4{fill:none;stroke:#a06faf;stroke-miterlimit:10;stroke-width:0.5px;}.cls-5{fill:#9f6fa9;}</style></defs><title>Fichier 3</title><g id="Calque_2" data-name="Calque 2"><g id="Calque_1-2" data-name="Calque 1"><g class="cls-1"><path class="cls-2" d="M0,1.2A1,1,0,0,1,1.08.12H8.46a23.77,23.77,0,0,1,9.21,1.62A17.17,17.17,0,0,1,24,6.18a17.78,17.78,0,0,1,3.66,6.6,27,27,0,0,1,1.17,8,26.75,26.75,0,0,1-1.17,8A17.53,17.53,0,0,1,24,35.37a17.64,17.64,0,0,1-6.36,4.44,23.39,23.39,0,0,1-9.21,1.65H1.08A1,1,0,0,1,0,40.38ZM24.6,20.82q0-7.74-4.08-12.09T8.46,4.38H5.28q-1,0-1,.84v31.2A.69.69,0,0,0,5,37.2H8.46q7.92,0,12-4.38T24.6,20.82Z"/><path class="cls-2" d="M39.3,19A38.3,38.3,0,0,0,40,26.76a18.57,18.57,0,0,0,2.22,5.94A11.31,11.31,0,0,0,46,36.54a10,10,0,0,0,5.31,1.38,9.8,9.8,0,0,0,5.28-1.38,11.16,11.16,0,0,0,3.69-3.84,19,19,0,0,0,2.19-5.94A38.3,38.3,0,0,0,63.18,19V1.2A1,1,0,0,1,64.26.12h2A1,1,0,0,1,67.38,1.2V20.82a34.31,34.31,0,0,1-.93,8.1,20.81,20.81,0,0,1-2.88,6.75,14.69,14.69,0,0,1-5,4.65,14.45,14.45,0,0,1-7.26,1.74A14.58,14.58,0,0,1,44,40.32a15,15,0,0,1-5-4.65A20.42,20.42,0,0,1,36,28.92a34.31,34.31,0,0,1-.93-8.1V1.2A1,1,0,0,1,36.18.12h2A1,1,0,0,1,39.3,1.2Z"/><path class="cls-2" d="M89.34,4.32a.9.9,0,0,0-1,1v35a1,1,0,0,1-1.08,1.08h-2a1,1,0,0,1-1.08-1.08V5.16q0-.84-1-.84h-9A1,1,0,0,1,73,3.24v-2A1,1,0,0,1,74.1.12H98.34A1,1,0,0,1,99.42,1.2v2a1,1,0,0,1-1.08,1.08Z"/><path class="cls-2" d="M105.06,1.2A1,1,0,0,1,106.14.12h8.46a20.64,20.64,0,0,1,6.54,1A14.55,14.55,0,0,1,126,3.75a11.32,11.32,0,0,1,3.06,4.08,12.52,12.52,0,0,1,1,5.13,12,12,0,0,1-2.34,7.35A13.56,13.56,0,0,1,121.14,25q-1,.42-.3,1.26l11,14.16a.81.81,0,0,1,.18.75q-.12.33-.66.33h-3.12a1.55,1.55,0,0,1-.93-.33,3.33,3.33,0,0,1-.75-.75L116,26.76a1.83,1.83,0,0,0-1-.66,4.43,4.43,0,0,0-1.14-.18h-3.6q-1,0-1,.84V40.38a1,1,0,0,1-1.08,1.08h-2a1,1,0,0,1-1.08-1.08Zm5,3.12q-.78,0-.78.84V20.7q0,1,.78,1h2.76a24.76,24.76,0,0,0,6.18-.66,11.36,11.36,0,0,0,4-1.83,6.89,6.89,0,0,0,2.22-2.79,8.79,8.79,0,0,0,.69-3.48,8.57,8.57,0,0,0-.69-3.45A6.73,6.73,0,0,0,123,6.78,11.71,11.71,0,0,0,119,5a24.76,24.76,0,0,0-6.18-.66Z"/><path class="cls-2" d="M140.7,1.2A1,1,0,0,1,141.78.12h2A1,1,0,0,1,144.9,1.2V40.38a1,1,0,0,1-1.08,1.08h-2a1,1,0,0,1-1.08-1.08Z"/><path class="cls-2" d="M156.42,41.46a1,1,0,0,1-1.08-1.08V1.2A1,1,0,0,1,156.42.12h21.24a1,1,0,0,1,1.08,1.08v2a1,1,0,0,1-1.08,1.08h-17.1q-1,0-1,.84V20.7q0,1,.78,1h17.34a1,1,0,0,1,1.08,1.08v2a1,1,0,0,1-1.08,1.08h-17.1q-1,0-1,.84v9.48q0,1,.78,1h17.34a1,1,0,0,1,1.08,1.08v2a1,1,0,0,1-1.08,1.08Z"/><path class="cls-2" d="M189.78,19a38.3,38.3,0,0,0,.72,7.74,18.57,18.57,0,0,0,2.22,5.94,11.31,11.31,0,0,0,3.75,3.84,10,10,0,0,0,5.31,1.38,9.8,9.8,0,0,0,5.28-1.38,11.16,11.16,0,0,0,3.69-3.84,19,19,0,0,0,2.19-5.94,38.3,38.3,0,0,0,.72-7.74V1.2A1,1,0,0,1,214.74.12h2a1,1,0,0,1,1.08,1.08V20.82a34.31,34.31,0,0,1-.93,8.1,20.81,20.81,0,0,1-2.88,6.75,14.69,14.69,0,0,1-5,4.65,16.14,16.14,0,0,1-14.58,0,15,15,0,0,1-5-4.65,20.42,20.42,0,0,1-2.91-6.75,34.31,34.31,0,0,1-.93-8.1V1.2A1,1,0,0,1,186.66.12h2a1,1,0,0,1,1.08,1.08Z"/><path class="cls-2" d="M247.44,1.2q.3-.42.57-.75a1,1,0,0,1,.81-.33h2.76a1,1,0,0,1,.78.33.54.54,0,0,1,0,.75l-11,18.6a2.34,2.34,0,0,0,.24,2.46l10.8,18.12a.57.57,0,0,1,0,.75,1,1,0,0,1-.81.33h-2.76a1,1,0,0,1-.78-.33,6.79,6.79,0,0,1-.6-.75L239,26.28q-.78-1.2-1.56,0l-8.4,14.1q-.3.42-.57.75a1,1,0,0,1-.81.33h-2.76a1,1,0,0,1-.78-.33.54.54,0,0,1,0-.75L235,22.26a3.84,3.84,0,0,0,.45-1.26,1.78,1.78,0,0,0-.27-1.2l-11-18.6a.64.64,0,0,1,0-.75.9.9,0,0,1,.78-.33h2.76a1,1,0,0,1,.78.33,8.2,8.2,0,0,1,.6.75l8.4,14.16q.72,1.26,1.56,0Z"/></g><path class="cls-3" d="M68.16,4.18c0,1.37-.08,3.06-.12,5.09S68,13.51,68,15.91s0,4.7,0,6.91,0,4.2.06,6,0,3,0,3.74c.2-1.09.46-2.45.76-4.08s.66-3.38,1.07-5.26.85-3.84,1.34-5.85,1-3.92,1.55-5.73,1.12-3.45,1.71-4.93a16.31,16.31,0,0,1,1.79-3.5,3.29,3.29,0,0,1,2.47-1.49,2.37,2.37,0,0,1,2.28,1.55,11.19,11.19,0,0,1,.79,3c.21,1.3.37,2.77.49,4.39s.2,3.34.25,5.15.06,3.56.06,5.26c.36-1.25.78-2.7,1.24-4.32s1-3.26,1.56-4.9S86.62,8.56,87.25,7a33.14,33.14,0,0,1,1.92-4,2.61,2.61,0,0,1,1.16-1.16,1.38,1.38,0,0,1,1.16,0,2.16,2.16,0,0,1,.91,1,3.8,3.8,0,0,1,.37,1.74c0,1.18-.1,2.74-.16,4.69s-.13,4.08-.21,6.39-.15,4.72-.21,7.19-.07,4.84,0,7.1.13,4.28.27,6.09a17.68,17.68,0,0,0,.7,4.11c.12.32.3.48.52.48a1.37,1.37,0,0,0,.76-.3,7.34,7.34,0,0,0,1.77-2c.56-.91,1.11-1.89,1.64-2.92s1-2.06,1.43-3.08.78-1.85,1.07-2.5q.06-.18.3-.09c.16.06.22.15.18.28-.32.69-.7,1.55-1.12,2.58s-.92,2.09-1.46,3.14-1.12,2-1.71,2.95a8.71,8.71,0,0,1-1.8,2.11,1.93,1.93,0,0,1-1.64.6,2,2,0,0,1-1.16-.91,9.86,9.86,0,0,1-1.06-3.8q-.34-2.65-.49-6.13c-.1-2.31-.13-4.77-.09-7.36s.09-5.1.15-7.5.13-4.57.21-6.54.13-3.48.13-4.54V3.67a2.46,2.46,0,0,0-.13-.89q-.12-.33-.36-.3c-.16,0-.37.27-.61.76A36.69,36.69,0,0,0,87.5,7.72c-.67,1.64-1.3,3.34-1.89,5.08S84.48,16.28,84,18s-.94,3.34-1.34,4.84q0,1.89,0,3.75c0,1.24,0,2.48,0,3.74,0,.08-.11.14-.31.18a3,3,0,0,1-.7.07,4.9,4.9,0,0,1-.7,0c-.2,0-.3-.07-.3-.15,0-1,0-2.26.06-3.74s.06-3.09.06-4.81,0-3.51,0-5.33-.09-3.57-.19-5.21S80.23,8.16,80,6.8a14.58,14.58,0,0,0-.83-3.19q-1-2.26-2.49-.13A16.91,16.91,0,0,0,74.8,7.17q-.92,2.34-1.77,5.3c-.57,2-1.1,4-1.61,6.18s-1,4.25-1.37,6.3-.77,4-1.1,5.73-.59,3.21-.79,4.35q.06,2.25.12,3.81a16.07,16.07,0,0,0,.19,2.22.36.36,0,0,1-.22.3,1.9,1.9,0,0,1-.55.22,4,4,0,0,1-.6.12c-.19,0-.3,0-.34,0a4.26,4.26,0,0,1-.33-1.74c-.11-1.07-.19-2.48-.25-4.23s-.1-3.72-.12-5.94,0-4.49,0-6.85,0-4.68,0-7,0-4.4.09-6.3.08-3.53.12-4.85.08-2.18.13-2.58c0-.09.13-.19.39-.31a3.94,3.94,0,0,1,.82-.27h.46l.17,1.17Z"/><path class="cls-3" d="M109.09,27.91q.06-.91.12-1.8t.18-1.74s.12-.15.37-.33a3.63,3.63,0,0,1,.79-.46,2.59,2.59,0,0,1,.73-.21q.3,0,.24.39c-.12.9-.23,2.07-.33,3.54s-.18,3-.22,4.5,0,3,0,4.42a12.47,12.47,0,0,0,.52,3.32c.12.32.3.49.52.49a1.39,1.39,0,0,0,.76-.31,7.08,7.08,0,0,0,1.71-1.92c.52-.83,1-1.73,1.52-2.71s.92-1.93,1.31-2.86l1-2.44c0-.12.15-.14.31-.06s.2.17.12.25c-.28.69-.63,1.52-1,2.49s-.85,2-1.34,2.93a28.72,28.72,0,0,1-1.55,2.74,8.61,8.61,0,0,1-1.73,2,2,2,0,0,1-1.65.61,2.11,2.11,0,0,1-1.16-.92,6.86,6.86,0,0,1-.76-2,21.45,21.45,0,0,1-.39-2.49c-.08-.84-.14-1.62-.15-2.35s0-1.26,0-1.58c-.24.69-.52,1.46-.85,2.31s-.7,1.71-1.12,2.56a19.5,19.5,0,0,1-1.41,2.37A8.64,8.64,0,0,1,104,40.39a2.2,2.2,0,0,1-2.34.64A3.54,3.54,0,0,1,100,39.17a8.18,8.18,0,0,1-.79-3.47,13.87,13.87,0,0,1,.46-4,13.38,13.38,0,0,1,1.49-3.59,6.28,6.28,0,0,1,2.31-2.35,4.7,4.7,0,0,1,1.59-.45,2.82,2.82,0,0,1,1.7.39,5.75,5.75,0,0,1,1.28,1A13.61,13.61,0,0,1,109.09,27.91Zm-.06.73a13.86,13.86,0,0,0-1.16-1.37,6.49,6.49,0,0,0-1.4-1.13,1.93,1.93,0,0,0-2.26.24,5.82,5.82,0,0,0-1.46,2.35,19.77,19.77,0,0,0-.94,3.47,26,26,0,0,0-.4,3.68,12.46,12.46,0,0,0,.19,3,2.87,2.87,0,0,0,.63,1.46q.47.48,1.44-.3a7.18,7.18,0,0,0,1.73-2,22,22,0,0,0,1.49-2.81c.45-1,.86-2,1.22-3s.65-1.86.85-2.59a2.77,2.77,0,0,0,.07-.52Z"/><path class="cls-3" d="M134.73,19.56c-.09.16-.2.21-.34.12s-.17-.18-.09-.3a1.1,1.1,0,0,0-.15-1.25,3.86,3.86,0,0,0-1.13-.76,8.34,8.34,0,0,0-2.8-.46c-1.14,0-2.34,0-3.59.09s-2.49.21-3.69.37-2.2.28-3,.37q0,.48,0,2.16t.12,4c.06,1.52.13,3.13.21,4.84s.17,3.33.28,4.87.2,2.9.3,4.08a9.38,9.38,0,0,0,.4,2.38q.18.54.51.54a1.4,1.4,0,0,0,.77-.3,7.62,7.62,0,0,0,1.76-2,24.77,24.77,0,0,0,1.58-2.89c.49-1,1-2,1.37-3s.79-1.84,1.07-2.53c0-.12.13-.14.28-.06s.19.17.15.25l-1.07,2.58c-.43,1-.89,2.08-1.4,3.11a30,30,0,0,1-1.64,2.92,8.45,8.45,0,0,1-1.8,2.1,2.07,2.07,0,0,1-1.64.58,1.85,1.85,0,0,1-1.16-.94,8.46,8.46,0,0,1-.78-2.5q-.34-1.76-.6-4c-.17-1.5-.3-3.09-.41-4.78s-.18-3.28-.25-4.78-.1-2.82-.12-4,0-1.92,0-2.37c-1.87.16-3.64.28-5.3.36a18.3,18.3,0,0,1-3.9-.12c-1.62-.24-1.75-.83-.37-1.76a8.94,8.94,0,0,1,1-.49c.36-.16.79-.35,1.28-.55q.18-.12.3.09a.22.22,0,0,1-.12.34,13,13,0,0,0-1.34.58l-.91.45c-.86.49-.79.79.18.92a17,17,0,0,0,3.75.12c1.68-.08,3.5-.23,5.45-.43,0-1.22-.07-2.4-.07-3.56s0-2.24-.06-3.26c0-.08.07-.16.19-.24s.5-.18.75-.28.51-.21.76-.33.37,0,.37.24c0,1.06,0,2.19,0,3.41s0,2.5,0,3.84c.85-.08,1.88-.2,3.1-.37s2.46-.28,3.72-.36,2.47-.1,3.65-.06a9,9,0,0,1,2.86.48,3.24,3.24,0,0,1,1.4.95A1.51,1.51,0,0,1,134.73,19.56Z"/><path class="cls-3" d="M139.9,39.84c.57-.77,1.19-1.67,1.86-2.71s1.31-2,1.92-3,1.13-1.86,1.58-2.65.75-1.35.91-1.68a.25.25,0,0,1,.28-.06.24.24,0,0,1,.15.25c-.12.28-.42.82-.88,1.61s-1,1.7-1.62,2.71-1.25,2.05-1.92,3.11-1.3,2-1.91,2.74a2,2,0,0,1-.92.73,1.07,1.07,0,0,1-.79-.06,1.41,1.41,0,0,1-.58-.58,2.55,2.55,0,0,1-.27-.82,9.32,9.32,0,0,1,.24-2.84c.25-1.11.53-2.3.85-3.56s.63-2.52.92-3.77a13.73,13.73,0,0,0,.36-3.48,3.05,3.05,0,0,0-.33-1.64c-.22-.32-.6-.3-1.13.06a7.54,7.54,0,0,0-1.55,1.34,14.86,14.86,0,0,0-1.31,1.71,16.79,16.79,0,0,0-1.1,1.88c-.32.65-.61,1.26-.85,1.83a25.71,25.71,0,0,0-1.31,4.11,20.9,20.9,0,0,0-.52,3.69q0,.12-.33.27a6.19,6.19,0,0,1-.73.27,3.23,3.23,0,0,1-.73.16c-.23,0-.36,0-.4-.16a36.53,36.53,0,0,1-1.19-5.87,62.85,62.85,0,0,1-.48-7.52,65.8,65.8,0,0,1,.45-8.13,43.45,43.45,0,0,1,1.59-7.65A21.71,21.71,0,0,1,133.08,4,9.08,9.08,0,0,1,137.59.5a5.07,5.07,0,0,1,2.74-.21,3.94,3.94,0,0,1,2.31,1.49,5.81,5.81,0,0,1,1.16,2.65,10.77,10.77,0,0,1-.06,3.74,18.31,18.31,0,0,1-1.83,5.42A21,21,0,0,1,138.8,18a25.58,25.58,0,0,1-4.08,3.59c-1.5,1.08-3.06,2.12-4.69,3.14,0,1.46,0,2.8,0,4s.15,2.37.27,3.47.28,2.15.49,3.17.44,2,.73,3.1a20.41,20.41,0,0,1,.51-3.71,23.25,23.25,0,0,1,1.31-4c.25-.53.53-1.13.86-1.8a21.37,21.37,0,0,1,1.09-2,13.75,13.75,0,0,1,1.37-1.82,9,9,0,0,1,1.68-1.47,2,2,0,0,1,2-.24,2.42,2.42,0,0,1,1.31,1.34,5.37,5.37,0,0,1,.15,3c-.22,1.28-.53,2.63-.91,4.05s-.79,2.83-1.19,4.21a14.81,14.81,0,0,0-.67,3.53,1,1,0,0,0,.18.67C139.35,40.39,139.58,40.25,139.9,39.84Zm-3.65-36.9a14.9,14.9,0,0,0-3,4.35,29.74,29.74,0,0,0-1.88,5.48,43.1,43.1,0,0,0-1,5.85c-.2,2-.33,3.78-.37,5.45,1.59-1,3.11-2,4.57-3.05a24.93,24.93,0,0,0,3.93-3.5,20.42,20.42,0,0,0,2.95-4.23,18.07,18.07,0,0,0,1.77-5.24,9.6,9.6,0,0,0,.06-3.53,5.7,5.7,0,0,0-1-2.44A3,3,0,0,0,140.72,1a2.83,2.83,0,0,0-1.58,0,5.15,5.15,0,0,0-1.52.79A9.85,9.85,0,0,0,136.25,2.94Z"/><path class="cls-3" d="M148.67,23.83a25.72,25.72,0,0,0-.3,3.16c-.09,1.5-.14,3.09-.16,4.75s0,3.23.07,4.69a12.91,12.91,0,0,0,.39,3.11c.12.32.29.49.52.49a1.39,1.39,0,0,0,.76-.31,7.08,7.08,0,0,0,1.71-1.92c.52-.83,1-1.73,1.52-2.71s.92-1.93,1.31-2.86l1-2.44c.08-.12.19-.14.34-.06s.19.17.15.25c-.33.69-.69,1.52-1.1,2.49s-.85,2-1.34,2.93A28.72,28.72,0,0,1,152,38.14a8.4,8.4,0,0,1-1.74,2,2,2,0,0,1-1.64.61,2.11,2.11,0,0,1-1.16-.92,9.14,9.14,0,0,1-1-3.35,30.34,30.34,0,0,1-.31-4.44c0-1.55,0-3,.16-4.42s.21-2.48.33-3.26c0-.08.12-.19.37-.33a4.86,4.86,0,0,1,.76-.37,2,2,0,0,1,.7-.15C148.63,23.52,148.71,23.62,148.67,23.83Zm-.85-6.95a1.25,1.25,0,0,1,1,.61,2,2,0,0,1,.37,1.22,1.8,1.8,0,0,1-.37,1.22,1.18,1.18,0,0,1-1,.55,1.15,1.15,0,0,1-1-.55,2,2,0,0,1,0-2.44A1.23,1.23,0,0,1,147.82,16.88Z"/><path class="cls-3" d="M166,18A28.21,28.21,0,0,1,162,21.54c-1.49,1.08-3.06,2.12-4.72,3.14q-.06,2.92.15,6.21A26.68,26.68,0,0,0,158.48,37a13.93,13.93,0,0,0,.51,1.61,5.94,5.94,0,0,0,.79,1.47,1.75,1.75,0,0,0,1.1.67,2.13,2.13,0,0,0,1.55-.7,13.56,13.56,0,0,0,2.84-3.93,31.64,31.64,0,0,0,2.34-6.31.41.41,0,0,1,.31,0c.12,0,.18.11.18.19a34,34,0,0,1-2.44,6.36,13.75,13.75,0,0,1-2.92,4,4.71,4.71,0,0,1-2.16,1.19,2.26,2.26,0,0,1-1.68-.34,4,4,0,0,1-1.28-1.52,12.09,12.09,0,0,1-.91-2.31,31.09,31.09,0,0,1-1-5.18,57.21,57.21,0,0,1-.39-6.33,60.67,60.67,0,0,1,.33-6.82,48.59,48.59,0,0,1,1.16-6.64,30.67,30.67,0,0,1,2.07-5.82A13.5,13.5,0,0,1,162,2.33,8.92,8.92,0,0,1,163.77,1a6.39,6.39,0,0,1,2.11-.76,4.29,4.29,0,0,1,2.1.15,4,4,0,0,1,1.88,1.37,6.09,6.09,0,0,1,1.37,3.9,13.59,13.59,0,0,1-.73,4.53,21.46,21.46,0,0,1-2,4.39A18.88,18.88,0,0,1,166,18Zm-8.77,6.09a49.47,49.47,0,0,0,4.5-3,31.34,31.34,0,0,0,3.9-3.41A19.36,19.36,0,0,0,168,14.45a21.83,21.83,0,0,0,2-4.24,13.64,13.64,0,0,0,.76-4.38,5.82,5.82,0,0,0-1.28-3.75A3,3,0,0,0,168,1a3.06,3.06,0,0,0-1.59,0,4.34,4.34,0,0,0-1.52.76A12.86,12.86,0,0,0,163.41,3a14.37,14.37,0,0,0-2.92,4.35,30.46,30.46,0,0,0-1.86,5.48,44.71,44.71,0,0,0-1,5.85C157.42,20.65,157.3,22.45,157.26,24.07Z"/><path class="cls-3" d="M178.94,39.54c.12.32.29.49.52.49a1.42,1.42,0,0,0,.76-.31,7.06,7.06,0,0,0,1.7-1.92,27.51,27.51,0,0,0,1.52-2.71c.49-1,.93-1.93,1.31-2.86s.72-1.75,1-2.44q.06-.18.3-.06c.16.08.23.17.19.25-.33.69-.69,1.52-1.1,2.49s-.85,2-1.34,2.93-1,1.88-1.55,2.74a8.4,8.4,0,0,1-1.74,2,2,2,0,0,1-1.64.61,2.13,2.13,0,0,1-1.17-.92,5.47,5.47,0,0,1-.69-1.76c-.17-.73-.32-1.51-.44-2.32s-.23-1.61-.32-2.4-.14-1.5-.18-2.1c-.25.69-.53,1.47-.86,2.34a26.63,26.63,0,0,1-1.12,2.59,23.23,23.23,0,0,1-1.4,2.4,8.67,8.67,0,0,1-1.56,1.8c-1,.81-1.85,1.13-2.52.94a2.45,2.45,0,0,1-1.56-1.49,8.74,8.74,0,0,1-.55-3,19.72,19.72,0,0,1,.28-3.87,20.19,20.19,0,0,1,1-3.81,7.72,7.72,0,0,1,1.8-2.86,3.49,3.49,0,0,1,1.89-1,3.4,3.4,0,0,1,2.25.48,6.91,6.91,0,0,1,2.13,1.89c0-1,.07-2.43.19-4.26s.37-3.8.72-5.91A60.18,60.18,0,0,1,178.26,11a28.18,28.18,0,0,1,2.29-5.79,11.94,11.94,0,0,1,3.26-3.93,5.61,5.61,0,0,1,4.45-1,4.34,4.34,0,0,1,2.4,1.49,5.36,5.36,0,0,1,1,2.53,11,11,0,0,1,0,3.13,18.58,18.58,0,0,1-.8,3.29,23.21,23.21,0,0,1-1.27,3.05,17.52,17.52,0,0,1-1.41,2.34,23.83,23.83,0,0,1-4.59,4.66,60.46,60.46,0,0,1-5.7,3.87c0,.73,0,1.79,0,3.2s.07,2.86.16,4.38.19,3,.33,4.29A16,16,0,0,0,178.94,39.54Zm-3.05-11-1-1.34a4.52,4.52,0,0,0-1.28-1,1.78,1.78,0,0,0-2.19.55,7.56,7.56,0,0,0-1.59,2.68,23.16,23.16,0,0,0-1.43,7.49,7.78,7.78,0,0,0,.34,2.8c.4,1.06,1.11,1.18,2.13.37a8.9,8.9,0,0,0,1.64-2,23.6,23.6,0,0,0,1.46-2.68c.45-1,.85-1.91,1.19-2.87s.64-1.79.88-2.52a4.59,4.59,0,0,1-.06-.73A4.62,4.62,0,0,0,175.89,28.51Zm2-4.44a61.68,61.68,0,0,0,5.45-3.69,21.78,21.78,0,0,0,4.42-4.47,21.58,21.58,0,0,0,1.95-3.56,19.11,19.11,0,0,0,1.43-4.66A9.86,9.86,0,0,0,191,3.33,3.58,3.58,0,0,0,188.13.8a3.49,3.49,0,0,0-3.22.83,11,11,0,0,0-2.59,3.47,29.23,29.23,0,0,0-1.95,5.05Q179.55,13,179,15.7c-.35,1.8-.62,3.47-.82,5A27.17,27.17,0,0,0,177.9,24.07Z"/><path class="cls-3" d="M198.55,30c-.16.52-.43,1.25-.79,2.16A28.22,28.22,0,0,1,196.39,35a25.33,25.33,0,0,1-1.86,2.89,13.1,13.1,0,0,1-2.13,2.32,3.29,3.29,0,0,1-2.68.73A4.27,4.27,0,0,1,187,39.05a8.92,8.92,0,0,1-1.43-3.26,12.26,12.26,0,0,1-.31-3.86,11.25,11.25,0,0,1,.92-3.69,5.66,5.66,0,0,1,2.22-2.65A3.87,3.87,0,0,1,190.3,25a1.74,1.74,0,0,1,1.61.85,2.36,2.36,0,0,1,.3,2.14,6.42,6.42,0,0,1-1.21,2.1,12.27,12.27,0,0,1-1.92,1.82,13.42,13.42,0,0,1-1.86,1.25,12,12,0,0,0,.4,2.71,10.07,10.07,0,0,0,1.18,3,2.55,2.55,0,0,0,1.59,1.37,2.3,2.3,0,0,0,1.7-.4,7.38,7.38,0,0,0,2-2.07,30.88,30.88,0,0,0,1.8-2.92,32,32,0,0,0,1.4-2.93,19.93,19.93,0,0,0,.76-2.07.33.33,0,0,1,.34-.06C198.54,29.77,198.59,29.85,198.55,30Zm-7.07-3.84c-.24-.41-.54-.53-.88-.37a4.29,4.29,0,0,0-.88.55,4.9,4.9,0,0,0-1.13,1.31,9.22,9.22,0,0,0-.76,1.62,10.26,10.26,0,0,0-.46,1.73,9.74,9.74,0,0,0-.15,1.61,10.67,10.67,0,0,0,1.61-1.12,15.13,15.13,0,0,0,1.74-1.65A5.4,5.4,0,0,0,191.7,28,2,2,0,0,0,191.48,26.14Z"/><path class="cls-4" d="M12.23,20.6s9.35-9,22.59,0,22.38,0,22.38,0S62,16.54,62.63,6.74,67.1,1.8,66.55,2.46"/><path class="cls-4" d="M198.23,30s5.53-21.19,10.86-17.27-1.2,18.42,11.55,12.4c0,0,11.84-4.77,11.84-10.3"/><path class="cls-3" d="M64.7.65a2.1,2.1,0,0,1,1.93,1.44l1.52-.42A2.29,2.29,0,0,0,64.7.65Z"/><path class="cls-3" d="M68.24,2.8A2.54,2.54,0,0,0,67.39.38a2.88,2.88,0,0,0-4.08,1.47L63.7,2l.24-.76.88-.66.87.2.74.73L67.85,2.8Z"/><path class="cls-3" d="M66,1.44s.37.33.32,1.32.52-.13.52-.13L66.2,1.4Z"/><polygon class="cls-5" points="198.53 30.03 199.24 27.12 198.38 29.94 198.53 30.03"/></g></g></svg>